<svg width="65" height="44" viewBox="0 0 65 44" fill="none" xmlns="http://www.w3.org/2000/svg">
<path d="M21.5044 31.4718C18.989 31.4718 16.5765 30.4726 14.7978 28.6939C13.0191 26.9152 12.0199 24.5027 12.0199 21.9873C12.0199 19.4718 13.0191 17.0594 14.7978 15.2807C16.5765 13.502 18.989 12.5027 21.5044 12.5027L21.5044 14.5926C19.5433 14.5926 17.6624 15.3717 16.2756 16.7585C14.8889 18.1452 14.1098 20.0261 14.1098 21.9873C14.1098 23.9484 14.8889 25.8293 16.2756 27.2161C17.6624 28.6028 19.5433 29.3819 21.5044 29.3819L21.5044 31.4718Z" fill="#2A2D3F"/>
<path d="M21.5044 37.8737C18.5669 37.8737 15.687 37.0592 13.1845 35.5209C10.6821 33.9825 8.65513 31.7804 7.32895 29.1593C6.00277 26.5382 5.42927 23.6008 5.67217 20.6733C5.91508 17.7459 6.96488 14.9431 8.70493 12.5764C10.445 10.2098 12.8071 8.37188 15.5289 7.26698C18.2507 6.16209 21.2255 5.83346 24.1228 6.3176C27.0202 6.80175 29.7265 8.07973 31.9412 10.0095C34.1559 11.9393 35.7921 14.4453 36.6682 17.2492L34.7814 17.8387C34.0143 15.3838 32.5816 13.1895 30.6425 11.4999C28.7034 9.81022 26.3338 8.69127 23.797 8.26736C21.2602 7.84345 18.6555 8.13119 16.2724 9.0986C13.8893 10.066 11.8211 11.6752 10.2976 13.7474C8.77405 15.8196 7.85487 18.2736 7.64219 20.8368C7.42951 23.4 7.93165 25.9719 9.09281 28.2669C10.254 30.5618 12.0287 32.4899 14.2198 33.8368C16.4108 35.1838 18.9325 35.8969 21.5044 35.8969L21.5044 37.8737Z" fill="#1A72FE"/>
<path d="M21.5001 40.6162C11.2092 40.6162 2.86674 32.2737 2.86674 21.9828C2.86674 11.6918 11.2092 3.34936 21.5001 3.34936C31.7911 3.34936 40.1335 11.6918 40.1335 21.9828C40.1335 32.2737 31.7911 40.6162 21.5001 40.6162ZM21.5001 4.16792C11.6613 4.16792 3.6853 12.1439 3.6853 21.9828C3.6853 31.8216 11.6613 39.7976 21.5001 39.7976C31.339 39.7976 39.315 31.8216 39.315 21.9828C39.315 12.1439 31.339 4.16792 21.5001 4.16792Z" fill="#1A72FE"/>
<path d="M31.2611 41.1392C27.9456 42.8286 24.2483 43.6286 20.5309 43.4609C16.8135 43.2931 13.2033 42.1634 10.0533 40.1823C6.9034 38.2011 4.32158 35.4363 2.5604 32.1583C0.799231 28.8803 -0.0809985 25.2013 0.00580887 21.4811C0.0926163 17.761 1.14349 14.127 3.05564 10.9347C4.96779 7.74243 7.67576 5.10107 10.9147 3.26899C14.1536 1.43691 17.8126 0.476846 21.5338 0.482692C25.2549 0.488537 28.9109 1.46009 32.144 3.30234L31.7493 3.99502C28.6361 2.22109 25.1157 1.28556 21.5325 1.27993C17.9493 1.2743 14.426 2.19876 11.3072 3.96291C8.18837 5.72705 5.58082 8.27047 3.73957 11.3444C1.89832 14.4183 0.886413 17.9175 0.802825 21.4997C0.719237 25.082 1.56683 28.6245 3.2627 31.781C4.95857 34.9375 7.44465 37.5997 10.4778 39.5074C13.5109 41.4151 16.9873 42.5029 20.5668 42.6644C24.1464 42.8259 27.7066 42.0556 30.8992 40.4288L31.2611 41.1392Z" fill="#2A2D3F"/>
<path d="M21.4999 33.9272C19.5356 33.9272 17.6017 33.4427 15.8694 32.5168C14.137 31.5908 12.6598 30.2519 11.5685 28.6187C10.4772 26.9855 9.80555 25.1083 9.61302 23.1535C9.42049 21.1987 9.71303 19.2266 10.4647 17.4118C11.2164 15.5971 12.4041 13.9957 13.9225 12.7496C15.4409 11.5035 17.2432 10.651 19.1697 10.2678C21.0962 9.88463 23.0875 9.98245 24.9672 10.5527C26.8469 11.1228 28.5569 12.1478 29.9459 13.5368L29.2797 14.203C28.0003 12.9236 26.4251 11.9795 24.6937 11.4543C22.9623 10.9291 21.1281 10.8389 19.3535 11.1919C17.5789 11.5449 15.9188 12.3301 14.5202 13.4779C13.1216 14.6257 12.0276 16.1008 11.3352 17.7724C10.6428 19.444 10.3733 21.2605 10.5507 23.0612C10.728 24.8618 11.3467 26.5909 12.3519 28.0953C13.3571 29.5997 14.7178 30.8329 16.3135 31.6858C17.9092 32.5388 19.6906 32.985 21.4999 32.985L21.4999 33.9272Z" fill="#1A72FE"/>
<path d="M24.3499 18.786C24.3499 17.1195 25.0119 15.5213 26.1903 14.3429C27.3687 13.1645 28.967 12.5025 30.6335 12.5025C32.3 12.5025 33.8982 13.1645 35.0766 14.3429C36.255 15.5213 36.917 17.1195 36.917 18.786L34.8234 18.786C34.8234 17.6748 34.3819 16.6091 33.5962 15.8233C32.8104 15.0376 31.7447 14.5961 30.6335 14.5961C29.5222 14.5961 28.4565 15.0376 27.6707 15.8233C26.885 16.6091 26.4436 17.6748 26.4436 18.786L24.3499 18.786Z" fill="#1A72FE"/>
<rect x="43.637" y="16.5251" width="2.08493" height="11.1605" fill="#2A2D3F"/>
<rect x="52.0994" y="12.4778" width="2.08493" height="15.2077" fill="#2A2D3F"/>
<rect x="62.0347" y="12.5024" width="2.08493" height="15.1753" fill="#2A2D3F"/>
<path fill-rule="evenodd" clip-rule="evenodd" d="M54.1846 12.4778H52.0383L58.1705 22.5345L64.1187 12.4778H62.0337L58.1705 18.7939L54.1846 12.4778Z" fill="#2A2D3F"/>
<rect x="34.8069" y="18.6101" width="2.08493" height="9.07558" fill="#1A72FE"/>
<rect x="32.4116" y="22.1667" width="2.08493" height="3.3196" transform="rotate(90 32.4116 22.1667)" fill="#1A72FE"/>
<rect x="24.3823" y="18.6101" width="2.08493" height="9.07558" fill="#1A72FE"/>
<rect x="50.4324" y="12.5027" width="2.08493" height="11.3815" transform="rotate(90 50.4324 12.5027)" fill="#2A2D3F"/>
</svg>
