<?xml version="1.0" encoding="utf-8"?><svg xmlns="http://www.w3.org/2000/svg" xmlns:xlink="http://www.w3.org/1999/xlink"><symbol viewBox="0 0 22 24" id="basket" xmlns="http://www.w3.org/2000/svg"><g clip-path="url(#aa)"><path d="M10.363 18.443a2.046 2.046 0 00-2.045 2.042 2.046 2.046 0 004.09 0 2.046 2.046 0 00-2.045-2.042zm6.134 0a2.046 2.046 0 00-2.045 2.042 2.046 2.046 0 004.089 0 2.046 2.046 0 00-2.044-2.042zm3.978-8.199L7.413 6.891a.614.614 0 00-.75.73L8.67 16.4h-.786L5.482 5.895a.613.613 0 00-.474-.464l-4.27-.882A.614.614 0 00.489 5.75l3.885.802L6.797 17.15a.613.613 0 00.598.477h12.07a.615.615 0 00.607-.53l.858-6.175a.613.613 0 00-.455-.678zm-8.14 3.91a.613.613 0 01-1.227 0v-2.696a.613.613 0 011.227 0v2.696zm2.625 0a.613.613 0 01-1.227 0v-1.88a.613.613 0 011.227 0v1.88zm2.625 0a.613.613 0 01-1.227 0v-1.226a.613.613 0 011.227 0v1.226z"/></g><path fill-rule="evenodd" clip-rule="evenodd" d="M16.268 4.568a2.996 2.996 0 00-1.693-.523c-.627 0-1.21.193-1.693.523-.28-.843-.492-1.752-.492-2.383C12.39.98 13.37 0 14.575 0s2.185.98 2.185 2.185c0 .631-.212 1.54-.492 2.383zm-4.722 2.274l.024.006v-.011l-.024.005zm4.972 1.217c-1.333-.33-2.766-.681-4.129-1.013a2.185 2.185 0 114.129 1.013zm4.436 1.103c-.866-.217-2.155-.538-3.618-.9a2.995 2.995 0 00.243-1.425c.87.18 1.762.45 2.308.765.596.344.969.928 1.067 1.56zM9.869 6.439c-.36-.086-.706-.167-1.03-.243a2.19 2.19 0 01-.376-2.667 2.188 2.188 0 013.147-.7c.098.738.338 1.599.61 2.353a3.01 3.01 0 00-.449.774c-.628.113-1.305.278-1.902.483zm10.124.075a3.43 3.43 0 01-.217.114c-.696-.295-1.587-.526-2.397-.672a3.01 3.01 0 00-.449-.774c.262-.727.494-1.553.599-2.273.095-.067.189-.128.278-.18a2.188 2.188 0 012.986.8 2.188 2.188 0 01-.8 2.985z"/><defs><clipPath id="aa"><path transform="translate(0 3.064)" d="M0 0h20.936v20.936H0z"/></clipPath></defs></symbol><symbol viewBox="0 0 344.96 344.96" id="check" xmlns="http://www.w3.org/2000/svg"><g data-name="Слой 2"><path class="bcls-1" d="M321.85 86.24l-40-23.11-23.1-40H212.5L172.48 0l-40 23.11H86.24l-23.11 40-40 23.1v46.21L0 172.48l23.11 40v46.21l40 23.11 23.11 40h46.21l40 23.1 40-23.11h46.21l23.11-40 40-23.11V212.5l23.11-40-23.11-40V86.24zM156.91 243.07a16.79 16.79 0 01-23.34 0l-50.45-50.44a16.19 16.19 0 010-22.89l13.35-13.35a16.19 16.19 0 0122.89 0l25.87 25.87 80.34-80.35a16.19 16.19 0 0122.89 0l13.35 13.35a16.19 16.19 0 010 22.89z" data-name="Capa 1"/></g></symbol><symbol viewBox="0 0 24 24" id="fb" xmlns="http://www.w3.org/2000/svg"><path d="M13.397 20.997v-8.196h2.765l.411-3.209h-3.176V7.548c0-.926.258-1.56 1.587-1.56h1.684v-2.86A22.108 22.108 0 0014.201 3c-2.444 0-4.122 1.492-4.122 4.231v2.355H7.332v3.21h2.753v8.201h3.312z"/></symbol><symbol viewBox="0 0 24 24" id="instagram" xmlns="http://www.w3.org/2000/svg"><path d="M11.999 7.377a4.624 4.624 0 100 9.248 4.624 4.624 0 000-9.248zm0 7.627a3.004 3.004 0 110-6.008 3.004 3.004 0 010 6.008zm4.807-6.719a1.078 1.078 0 100-2.156 1.078 1.078 0 000 2.156z"/><path d="M20.533 6.11A4.605 4.605 0 0017.9 3.48a6.607 6.607 0 00-2.186-.42c-.963-.042-1.268-.054-3.71-.054s-2.755 0-3.71.054a6.554 6.554 0 00-2.184.42 4.6 4.6 0 00-2.633 2.63 6.585 6.585 0 00-.419 2.186c-.043.962-.056 1.267-.056 3.71 0 2.442 0 2.753.056 3.71.015.748.156 1.486.419 2.187a4.61 4.61 0 002.634 2.632 6.583 6.583 0 002.185.45c.963.042 1.268.055 3.71.055s2.755 0 3.71-.055a6.616 6.616 0 002.186-.42 4.613 4.613 0 002.633-2.632c.263-.7.404-1.438.419-2.186.043-.962.056-1.267.056-3.71s0-2.753-.056-3.71a6.583 6.583 0 00-.421-2.217zm-1.218 9.533a5.046 5.046 0 01-.311 1.688 2.987 2.987 0 01-1.712 1.71c-.535.2-1.1.305-1.67.312-.95.044-1.218.055-3.654.055-2.438 0-2.687 0-3.655-.055a4.961 4.961 0 01-1.67-.311 2.984 2.984 0 01-1.718-1.711 5.08 5.08 0 01-.311-1.67c-.043-.95-.053-1.217-.053-3.653 0-2.437 0-2.686.053-3.655a5.038 5.038 0 01.311-1.687c.305-.79.93-1.41 1.719-1.712a5.01 5.01 0 011.669-.311c.95-.043 1.218-.055 3.655-.055s2.687 0 3.654.055a4.96 4.96 0 011.67.31 2.99 2.99 0 011.712 1.713 5.06 5.06 0 01.311 1.669c.043.95.054 1.218.054 3.655 0 2.436 0 2.698-.043 3.654h-.011v-.001z"/></symbol><symbol viewBox="0 0 24 25" id="menu-1" xmlns="http://www.w3.org/2000/svg"><g clip-path="url(#ea)"><path d="M19.776 17.3a8.97 8.97 0 00.637-1.231h-5.017A4.917 4.917 0 0112 17.428c-1.3 0-2.504-.51-3.396-1.36H3.588c.18.425.391.836.636 1.231l-1.67 1.67a.704.704 0 000 .995c2.097 2.072 1.988 2.047 2.217 2.141.262.108.564.05.765-.152l1.671-1.67c.831.513 1.73.885 2.684 1.11v2.363c0 .388.315.703.703.703h2.812a.703.703 0 00.703-.703v-2.363a8.998 8.998 0 002.684-1.11l1.67 1.67a.704.704 0 00.995 0l1.989-1.99a.704.704 0 000-.994l-1.67-1.67zm3.521-6.856H.703a.703.703 0 00-.703.703v2.812c0 .389.315.703.703.703h22.594A.703.703 0 0024 13.96v-2.812a.703.703 0 00-.703-.703zm-1.029-1.407c-.715-2.65-2.744-4.778-5.346-5.971v2.456a.703.703 0 01-1.407 0V2.53a11.64 11.64 0 00-1.406-.34v4.738a.703.703 0 01-.703.703h-2.812a.703.703 0 01-.703-.703V2.189c-.48.085-.95.198-1.407.34v2.993a.703.703 0 01-1.406 0V3.065C4.47 4.26 2.446 6.393 1.732 9.037h20.536z"/><path d="M12.703 1.21a.703.703 0 00-1.406 0v5.015h1.406V1.209z"/></g><defs><clipPath id="ea"><path transform="translate(0 .483)" d="M0 0h24v24H0z"/></clipPath></defs></symbol><symbol viewBox="0 0 24 25" id="menu-2" xmlns="http://www.w3.org/2000/svg"><g clip-path="url(#fa)"><path d="M16.771 18.871a7.806 7.806 0 01-4.77 1.622 7.806 7.806 0 01-4.772-1.622v5.612h9.542V18.87zm1.61-.933h-.204v6.545H24v-.926a5.625 5.625 0 00-5.619-5.619zm-12.558 0h-.204A5.625 5.625 0 000 23.557v.926h5.823v-6.545zm8.99-15.964v5.09h3.588a6.371 6.371 0 00-1.244-3.156 6.512 6.512 0 00-2.344-1.934zm-7.97 1.935A6.37 6.37 0 005.6 7.063h3.588V1.974A6.51 6.51 0 006.843 3.91z"/><path d="M12 19.087c3.55 0 6.44-2.889 6.44-6.44v-1.013H5.56v1.013c0 3.551 2.89 6.44 6.44 6.44zM13.407.483h-2.814v6.58h2.814V.483zm6.616 7.987H3.977v1.758h16.044V8.47z"/></g><defs><clipPath id="fa"><path transform="translate(0 .483)" d="M0 0h24v24H0z"/></clipPath></defs></symbol><symbol viewBox="0 0 24 25" id="menu-3" xmlns="http://www.w3.org/2000/svg"><g clip-path="url(#ga)"><path d="M19.078 17.217a2.698 2.698 0 01-2.695-2.695 2.698 2.698 0 012.695-2.696 2.698 2.698 0 012.695 2.696 2.698 2.698 0 01-2.695 2.695zm-14.156 0a2.698 2.698 0 01-2.695-2.695 2.698 2.698 0 012.695-2.696 2.698 2.698 0 012.695 2.696 2.698 2.698 0 01-2.695 2.695zM16.688 2.358a2.318 2.318 0 01-2.085-1.289l-.1-.198a.703.703 0 00-.628-.388h-3.75c-.266 0-.51.15-.629.388l-.099.198a2.318 2.318 0 01-2.085 1.289.703.703 0 00-.703.703v4.012a7.23 7.23 0 001.44 4.346 7.229 7.229 0 003.749 2.628.702.702 0 00.404 0 7.229 7.229 0 003.75-2.628 7.23 7.23 0 001.439-4.346V3.061a.703.703 0 00-.703-.703zM14.486 6.45l-2.652 2.652a.701.701 0 01-.994 0L9.514 7.777a.703.703 0 01.995-.995l.828.829 2.155-2.154a.703.703 0 11.994.994zm7.467 10.994a4.088 4.088 0 01-2.875 1.18A4.088 4.088 0 0116.2 17.44a4.931 4.931 0 00-1.037 1.01l.386.338a5.392 5.392 0 011.843 4.054v1.64h5.906A.703.703 0 0024 23.78v-2.344a4.919 4.919 0 00-2.047-3.992zm-19.906 0A4.919 4.919 0 000 21.436v2.344c0 .388.315.703.703.703H6.61v-1.64a5.39 5.39 0 011.843-4.055l.386-.339a4.928 4.928 0 00-1.037-1.009 4.088 4.088 0 01-2.88 1.183 4.088 4.088 0 01-2.874-1.18zm12.574 2.402a3.622 3.622 0 01-5.242 0 3.975 3.975 0 00-1.363 2.996v1.64h7.968v-1.64a3.975 3.975 0 00-1.363-2.996zM12 19.56a2.23 2.23 0 01-2.227-2.226A2.23 2.23 0 0112 15.108c1.228 0 2.227.998 2.227 2.226A2.23 2.23 0 0112 19.561z"/></g><defs><clipPath id="ga"><path transform="translate(0 .483)" d="M0 0h24v24H0z"/></clipPath></defs></symbol><symbol viewBox="0 0 24 25" id="menu-4" xmlns="http://www.w3.org/2000/svg"><path d="M3.671 3.315H3.67a.855.855 0 00-.854.859v12.878a.86.86 0 00.86.858c1.999.005 5.348.422 7.658 2.84V7.272c0-.16-.04-.31-.118-.434C9.32 3.784 5.675 3.32 3.671 3.315zm17.514 13.737V4.174a.855.855 0 00-.854-.86h-.002c-2.004.006-5.648.47-7.544 3.524a.824.824 0 00-.118.435V20.75c2.31-2.418 5.66-2.835 7.658-2.84a.862.862 0 00.86-.858z"/><path d="M23.141 6.285h-.622v10.767a2.197 2.197 0 01-2.19 2.192c-1.696.004-4.492.335-6.472 2.21 3.425-.839 7.035-.294 9.092.175A.857.857 0 0024 20.792V7.144a.86.86 0 00-.859-.86zM1.481 17.052V6.285H.86a.86.86 0 00-.86.859v13.648a.856.856 0 001.05.837c2.058-.47 5.668-1.014 9.093-.176-1.98-1.874-4.776-2.205-6.472-2.21a2.197 2.197 0 01-2.19-2.191z"/></symbol><symbol viewBox="0 0 24 25" id="menu-5" xmlns="http://www.w3.org/2000/svg"><g clip-path="url(#ia)"><path d="M16.818 4.354H3.036c-.5 0-.907.407-.907.907v18.315c0 .5.407.907.907.907h13.782c.5 0 .907-.407.907-.907V5.26c0-.5-.407-.907-.907-.907zm-3.076 12.774H6.387a.774.774 0 110-1.548h7.355a.774.774 0 110 1.548zm0-3.097H6.387a.774.774 0 110-1.548h7.355a.774.774 0 110 1.548zm0-3.097H6.387a.774.774 0 110-1.548h7.355a.774.774 0 110 1.548z"/><path d="M21.871 2.805v17.032c0 1.17-.94 2.323-2.598 2.323V5.26a2.458 2.458 0 00-2.455-2.455H4.727c0-1.28 1.104-2.322 2.46-2.322h12.224c1.356 0 2.46 1.041 2.46 2.322z"/></g><defs><clipPath id="ia"><path transform="translate(0 .483)" d="M0 0h24v24H0z"/></clipPath></defs></symbol><symbol viewBox="0 0 24 25" id="menu-6" xmlns="http://www.w3.org/2000/svg"><g clip-path="url(#ja)"><path d="M15.516.483H7.078C3.201.483 0 3.684 0 7.56c0 3.545 2.684 6.485 6.098 6.963.215.101.72.068.98.068v2.11a.703.703 0 001.093.584l4.042-2.694h3.303c3.876 0 7.078-3.154 7.078-7.031S19.392.483 15.516.483zM7.078 8.967a1.408 1.408 0 01-1.406-1.406c0-.775.63-1.406 1.406-1.406.775 0 1.406.63 1.406 1.406 0 .775-.63 1.406-1.406 1.406zm4.219 0A1.408 1.408 0 019.89 7.561c0-.775.63-1.406 1.406-1.406.775 0 1.406.63 1.406 1.406 0 .775-.63 1.406-1.406 1.406zm4.219 0a1.408 1.408 0 01-1.407-1.406 1.407 1.407 0 012.813 0c0 .775-.631 1.406-1.406 1.406z"/><path d="M23.13 11.269a8.51 8.51 0 01-7.614 4.73h-2.877L8.95 18.455A2.11 2.11 0 015.67 16.7v-.82a8.517 8.517 0 01-4.193-2.002c-.024.238-.072.471-.072.713 0 3.877 3.202 7.031 7.078 7.031h3.303l4.042 2.741a.703.703 0 001.093-.585v-2.156c.26 0 .765.033.98-.068C21.316 21.077 24 18.136 24 14.592c0-1.187-.322-2.31-.87-3.323z"/></g><defs><clipPath id="ja"><path transform="translate(0 .483)" d="M0 0h24v24H0z"/></clipPath></defs></symbol><symbol viewBox="0 0 20 25" id="notifications" xmlns="http://www.w3.org/2000/svg"><path d="M7.155 21.618v.02a2.846 2.846 0 005.69 0v-.02h-5.69zm11.93-3.557l-2.56-3.762V9.606a6.526 6.526 0 00-5.246-6.399V1.762a1.28 1.28 0 00-2.558 0v1.445a6.526 6.526 0 00-5.245 6.399v4.693L.915 18.061a1.294 1.294 0 001.07 2.022h16.03a1.294 1.294 0 001.07-2.022z"/></symbol><symbol viewBox="0 0 16 16" id="telegram" xmlns="http://www.w3.org/2000/svg"><path d="M14.629 3.698l-2.012 9.618c-.152.679-.548.848-1.11.528l-3.066-2.29-1.48 1.442c-.163.166-.3.305-.616.305l.22-3.165 5.683-5.204c.247-.223-.054-.347-.384-.123L4.839 9.29l-3.024-.959c-.658-.208-.67-.667.137-.986L13.78 2.727c.548-.208 1.027.124.849.971z"/></symbol><symbol viewBox="0 0 16 16" id="viber" xmlns="http://www.w3.org/2000/svg"><path d="M8 1.335c-1.071.013-3.374.19-4.662 1.37-.958.948-1.292 2.35-1.331 4.084-.033 1.728-.072 4.973 3.058 5.856v1.346s-.02.538.337.648c.438.14.688-.275 1.105-.72l.778-.879c2.142.178 3.782-.232 3.97-.293.435-.139 2.883-.451 3.283-3.696.41-3.351-.2-5.463-1.301-6.418h-.007c-.332-.306-1.668-1.279-4.652-1.29 0 0-.222-.014-.578-.008zm.037.942a7.02 7.02 0 01.488.011c2.527.007 3.732.767 4.017 1.023.927.794 1.405 2.697 1.055 5.495-.332 2.713-2.317 2.885-2.685 3.002-.156.05-1.6.406-3.42.289 0 0-1.356 1.634-1.78 2.055-.067.074-.146.095-.196.085-.071-.018-.093-.107-.089-.229l.013-2.233c-2.655-.733-2.498-3.5-2.47-4.946.033-1.446.304-2.628 1.113-3.43 1.088-.982 3.043-1.115 3.953-1.122zm.2 1.446a.166.166 0 100 .332 3.136 3.136 0 012.242.883c.606.588.9 1.378.912 2.411 0 .092.074.167.167.167V7.51a.167.167 0 00.168-.165 3.588 3.588 0 00-1.009-2.646c-.66-.645-1.496-.977-2.48-.977zm-2.198.382a.523.523 0 00-.342.067H5.69a2.61 2.61 0 00-.637.523 1.003 1.003 0 00-.256.525.71.71 0 00.026.302l.01.006c.172.504.396.988.67 1.444a8.48 8.48 0 001.29 1.762l.015.022.024.017.015.018.017.015c.532.505 1.127.94 1.769 1.295.734.4 1.18.588 1.447.667v.004c.078.024.15.034.221.034.228-.016.444-.109.613-.262a2.53 2.53 0 00.517-.638v-.004c.128-.241.085-.469-.1-.623-.37-.323-.77-.61-1.195-.857-.285-.155-.574-.061-.69.095l-.25.315c-.129.156-.361.134-.361.134l-.007.004C7.093 8.527 6.63 6.772 6.63 6.772s-.022-.239.139-.36l.312-.252c.15-.122.254-.41.094-.695a7.498 7.498 0 00-.856-1.194.475.475 0 00-.28-.167zm2.486.495c-.221 0-.221.334.003.334A2.098 2.098 0 0110 5.572 1.94 1.94 0 0110.5 7a.168.168 0 00.167.165l.007.009a.169.169 0 00.167-.167c.015-.662-.191-1.218-.595-1.663C9.84 4.9 9.273 4.65 8.549 4.6h-.024zm.274.898c-.228-.006-.236.335-.01.341.55.029.816.306.851.877a.166.166 0 00.165.163h.007a.168.168 0 00.16-.178c-.039-.744-.445-1.164-1.166-1.202H8.8z"/></symbol><symbol viewBox="0 0 24 24" id="vk" xmlns="http://www.w3.org/2000/svg"><path d="M21.579 6.855c.14-.465 0-.806-.662-.806h-2.193c-.558 0-.813.295-.953.619 0 0-1.115 2.719-2.695 4.482-.51.513-.743.675-1.021.675-.139 0-.341-.162-.341-.627V6.855c0-.558-.161-.806-.626-.806H9.642c-.348 0-.558.258-.558.504 0 .528.79.65.871 2.138v3.228c0 .707-.127.836-.407.836-.743 0-2.551-2.73-3.624-5.853-.209-.607-.42-.852-.98-.852H2.752c-.627 0-.752.295-.752.619 0 .582.743 3.462 3.461 7.27 1.812 2.602 4.363 4.012 6.687 4.012 1.393 0 1.565-.313 1.565-.853v-1.966c0-.626.133-.752.574-.752.324 0 .882.164 2.183 1.417 1.486 1.486 1.732 2.153 2.567 2.153h2.192c.626 0 .939-.313.759-.931-.197-.615-.907-1.51-1.849-2.57-.512-.603-1.277-1.253-1.51-1.578-.325-.42-.231-.604 0-.976.001 0 2.672-3.761 2.95-5.04z"/></symbol><symbol viewBox="0 0 16 16" id="whatsapp" xmlns="http://www.w3.org/2000/svg"><path fill-rule="evenodd" clip-rule="evenodd" d="M12.269 3.755A5.947 5.947 0 008.035 2 5.994 5.994 0 002.05 7.985a5.98 5.98 0 00.799 2.992L2 14.077l3.173-.832c.877.477 1.86.728 2.86.728h.002a5.993 5.993 0 005.533-8.276 5.953 5.953 0 00-1.3-1.942zm-4.234 9.208h-.002c-.89 0-1.765-.24-2.532-.694l-.181-.108-1.883.494.502-1.835-.118-.188a4.965 4.965 0 01-.76-2.647 4.982 4.982 0 016.88-4.597c.604.25 1.152.618 1.613 1.081a4.946 4.946 0 011.455 3.52 4.982 4.982 0 01-4.974 4.974zm2.729-3.726c-.15-.075-.885-.436-1.022-.486-.137-.05-.236-.075-.336.074-.1.15-.387.486-.474.586-.087.1-.175.112-.324.038-.15-.075-.631-.233-1.203-.742a4.505 4.505 0 01-.832-1.036c-.087-.15-.009-.231.066-.306.068-.066.15-.174.224-.262.075-.087.1-.149.15-.249.05-.1.025-.187-.013-.262-.037-.075-.337-.811-.461-1.11-.121-.29-.244-.252-.336-.256a6.418 6.418 0 00-.286-.005.55.55 0 00-.4.186c-.137.15-.523.512-.523 1.248s.536 1.447.61 1.547c.075.1 1.055 1.61 2.555 2.258.358.154.636.246.853.315.358.114.684.098.942.06.287-.043.885-.362 1.01-.711.124-.35.124-.649.087-.711-.038-.063-.138-.101-.287-.176z"/></symbol></svg>