<svg width="24" height="25" viewBox="0 0 24 25" fill="none" xmlns="http://www.w3.org/2000/svg">
<path d="M3.67119 3.31494C3.67054 3.31494 3.66981 3.31494 3.66917 3.31494C3.44217 3.31494 3.22868 3.40343 3.06747 3.56424C2.90448 3.72682 2.8147 3.94331 2.8147 4.17377V17.0518C2.8147 17.524 3.2004 17.9092 3.67458 17.9104C5.67362 17.9152 9.0228 18.3318 11.3333 20.7497V7.27245C11.3333 7.11237 11.2924 6.96198 11.2152 6.83754C9.31889 3.78363 5.67475 3.31963 3.67119 3.31494Z" fill="#888888"/>
<path d="M21.1852 17.0519V4.17377C21.1852 3.94331 21.0955 3.72682 20.9325 3.56424C20.7713 3.40343 20.5576 3.31494 20.3309 3.31494C20.3301 3.31494 20.3294 3.31494 20.3288 3.31494C18.3253 3.31971 14.6811 3.78371 12.7847 6.83762C12.7076 6.96206 12.6667 7.11245 12.6667 7.27253V20.7497C14.9772 18.3318 18.3264 17.9152 20.3254 17.9104C20.7995 17.9092 21.1852 17.524 21.1852 17.0519Z" fill="#888888"/>
<path d="M23.1413 6.28491H22.5186V17.0519C22.5186 18.2576 21.5362 19.2408 20.3286 19.2438C18.633 19.2479 15.8372 19.5794 13.8572 21.4534C17.2817 20.615 20.8917 21.16 22.9491 21.6289C23.206 21.6874 23.4714 21.6269 23.6773 21.4629C23.8823 21.2993 24 21.0547 24 20.7921V7.14358C24.0001 6.67013 23.6148 6.28491 23.1413 6.28491Z" fill="#888888"/>
<path d="M1.48138 17.0519V6.28491H0.85867C0.385294 6.28491 0 6.67013 0 7.14358V20.7919C0 21.0545 0.117657 21.299 0.322749 21.4627C0.528406 21.6266 0.793619 21.6873 1.05091 21.6286C3.10829 21.1597 6.71841 20.6147 10.1427 21.4532C8.16277 19.5793 5.36697 19.2478 3.67137 19.2437C2.46385 19.2408 1.48138 18.2576 1.48138 17.0519Z" fill="#888888"/>
</svg>
