<svg width="24" height="25" viewBox="0 0 24 25" fill="none" xmlns="http://www.w3.org/2000/svg">
<g clip-path="url(#clip0_1270_14628)">
<path d="M16.7713 18.8713C15.4483 19.8879 13.7937 20.4933 12.0001 20.4933C10.2066 20.4933 8.55199 19.8879 7.229 18.8713V24.4827H16.7713V18.8713Z" fill="#888888"/>
<path d="M18.3813 17.9382H18.1772V24.4826H23.9999V23.5569C23.9999 20.4588 21.4794 17.9382 18.3813 17.9382Z" fill="#888888"/>
<path d="M5.82268 17.9382H5.61864C2.52054 17.9382 0 20.4588 0 23.5569V24.4826H5.82268V17.9382Z" fill="#888888"/>
<path d="M14.8132 1.97437V7.06321H18.4011C18.2779 5.91895 17.8547 4.83956 17.1569 3.90848C16.5419 3.08797 15.7296 2.42223 14.8132 1.97437Z" fill="#888888"/>
<path d="M6.84307 3.90857C6.14527 4.8397 5.72206 5.91899 5.59888 7.06325H9.1868V1.97437C8.27035 2.42223 7.45799 3.08802 6.84307 3.90857Z" fill="#888888"/>
<path d="M12 19.087C15.5508 19.087 18.4397 16.1981 18.4397 12.6472V11.6345H5.5603V12.6472C5.5603 16.1981 8.44914 19.087 12 19.087Z" fill="#888888"/>
<path d="M13.407 0.482666H10.593V7.06337H13.407V0.482666Z" fill="#888888"/>
<path d="M20.0225 8.46948H3.97778V10.2284H20.0225V8.46948Z" fill="#888888"/>
</g>
<defs>
<clipPath id="clip0_1270_14628">
<rect width="24" height="24" fill="white" transform="translate(0 0.482666)"/>
</clipPath>
</defs>
</svg>
