<svg width="24" height="25" viewBox="0 0 24 25" fill="none" xmlns="http://www.w3.org/2000/svg">
<g clip-path="url(#clip0_1270_14619)">
<path d="M19.7761 17.2991C20.0209 16.9038 20.233 16.4931 20.4125 16.0686H15.3962C14.5037 16.9189 13.2999 17.428 12 17.428C10.7001 17.428 9.49635 16.9189 8.6039 16.0686H3.58757C3.7671 16.4931 3.97921 16.9038 4.22395 17.2991L2.55332 18.9692C2.2791 19.2439 2.2791 19.6892 2.55332 19.9639C4.65145 22.0363 4.54176 22.0105 4.77051 22.1052C5.03348 22.2134 5.33488 22.1544 5.53645 21.9528L7.20707 20.2822C8.03816 20.7964 8.93676 21.1681 9.89066 21.3927V23.7561C9.89066 24.1442 10.2057 24.4592 10.5938 24.4592H13.4063C13.7944 24.4592 14.1094 24.1442 14.1094 23.7561V21.3927C15.0633 21.1681 15.9619 20.7964 16.793 20.2822L18.4636 21.9528C18.7388 22.228 19.1846 22.2261 19.4579 21.9528L21.4468 19.9639C21.721 19.6892 21.721 19.2439 21.4468 18.9692L19.7761 17.2991Z" fill="#1A72FE"/>
<path d="M23.2969 10.4436H0.703125C0.314812 10.4436 0 10.7584 0 11.1467V13.9592C0 14.3475 0.314812 14.6624 0.703125 14.6624H23.2969C23.6852 14.6624 24 14.3475 24 13.9592V11.1467C24 10.7584 23.6852 10.4436 23.2969 10.4436Z" fill="#1A72FE"/>
<path d="M22.2676 9.0374C21.5531 6.38704 19.5242 4.25915 16.9218 3.06553V5.52178C16.9218 5.9099 16.6068 6.2249 16.2187 6.2249C15.8305 6.2249 15.5155 5.9099 15.5155 5.52178V2.52975C15.0576 2.38818 14.5879 2.27428 14.1093 2.18943V6.92803C14.1093 7.31615 13.7943 7.63115 13.4062 7.63115H10.5937C10.2055 7.63115 9.89055 7.31615 9.89055 6.92803V2.18896C9.41148 2.27381 8.9418 2.38725 8.4843 2.52881V5.52178C8.4843 5.9099 8.1693 6.2249 7.78117 6.2249C7.39305 6.2249 7.07805 5.9099 7.07805 5.52178V3.06459C4.46927 4.26056 2.44609 6.39318 1.73242 9.0374H22.2676Z" fill="#1A72FE"/>
<path d="M12.7031 1.20923C12.7031 0.820916 12.3883 0.506104 12 0.506104C11.6117 0.506104 11.2969 0.820916 11.2969 1.20923V6.22485H12.7031V1.20923Z" fill="#1A72FE"/>
</g>
<defs>
<clipPath id="clip0_1270_14619">
<rect width="24" height="24" fill="white" transform="translate(0 0.482666)"/>
</clipPath>
</defs>
</svg>
