<svg width="24" height="25" viewBox="0 0 24 25" fill="none" xmlns="http://www.w3.org/2000/svg">
<g clip-path="url(#clip0_1270_14642)">
<path d="M19.0781 17.217C17.5919 17.217 16.3828 16.0079 16.3828 14.5217C16.3828 13.0355 17.5919 11.8264 19.0781 11.8264C20.5643 11.8264 21.7734 13.0355 21.7734 14.5217C21.7734 16.0079 20.5643 17.217 19.0781 17.217Z" fill="#888888"/>
<path d="M4.92188 17.217C3.43566 17.217 2.22656 16.0079 2.22656 14.5217C2.22656 13.0355 3.43566 11.8264 4.92188 11.8264C6.40809 11.8264 7.61719 13.0355 7.61719 14.5217C7.61719 16.0079 6.40809 17.217 4.92188 17.217Z" fill="#888888"/>
<path d="M16.6875 2.35767C15.799 2.35767 15.0002 1.86398 14.6029 1.06935L14.5039 0.8714C14.3848 0.633135 14.1413 0.482666 13.875 0.482666H10.125C9.85866 0.482666 9.61519 0.633135 9.49608 0.871354L9.39713 1.06926C8.99981 1.86398 8.20102 2.35767 7.3125 2.35767C6.92419 2.35767 6.60938 2.67248 6.60938 3.06079V7.07315C6.60938 8.65068 7.10714 10.1535 8.04881 11.4192C8.99048 12.6848 10.287 13.5935 11.798 14.0467C11.8639 14.0665 11.9319 14.0764 12 14.0764C12.0681 14.0764 12.1361 14.0665 12.202 14.0467C13.713 13.5935 15.0095 12.6848 15.9512 11.4192C16.8929 10.1535 17.3906 8.65068 17.3906 7.07315V3.06079C17.3906 2.67248 17.0758 2.35767 16.6875 2.35767ZM14.4859 6.45088L11.8343 9.10251C11.697 9.23981 11.517 9.30848 11.3371 9.30848C11.1572 9.30848 10.9772 9.23985 10.84 9.10251L9.51417 7.7767C9.23958 7.5021 9.23958 7.05693 9.51417 6.78234C9.78872 6.50774 10.2339 6.50774 10.5085 6.78234L11.3372 7.61095L13.4917 5.45653C13.7662 5.18193 14.2114 5.18193 14.486 5.45653C14.7605 5.73112 14.7605 6.17629 14.4859 6.45088Z" fill="#888888"/>
<path d="M21.9534 17.4437C21.2127 18.1727 20.1971 18.6234 19.0781 18.6234C17.9573 18.6234 16.9403 18.1713 16.1992 17.4402C15.8059 17.7236 15.4558 18.0635 15.1616 18.4491L15.548 18.7875C16.719 19.8132 17.3906 21.291 17.3906 22.8421V24.4827H23.2969C23.6852 24.4827 24 24.1679 24 23.7796V21.4359C24 19.7945 23.1922 18.3384 21.9534 17.4437Z" fill="#888888"/>
<path d="M2.04656 17.4437C0.807797 18.3384 0 19.7945 0 21.4359V23.7796C0 24.1679 0.314812 24.4827 0.703125 24.4827H6.60938V22.8421C6.60938 21.291 7.281 19.8132 8.45203 18.7875L8.83838 18.4491C8.54423 18.0635 8.19413 17.7236 7.80075 17.4402C7.0597 18.1713 6.04266 18.6234 4.92188 18.6234C3.80288 18.6234 2.78733 18.1727 2.04656 17.4437Z" fill="#888888"/>
<path d="M14.6214 19.8455C13.9598 20.5359 13.0296 20.9672 12 20.9672C10.9704 20.9672 10.0403 20.5359 9.37856 19.8455C8.54409 20.5763 8.01562 21.6484 8.01562 22.8422V24.4828H15.9844V22.8422C15.9844 21.6484 15.4559 20.5763 14.6214 19.8455Z" fill="#888888"/>
<path d="M12 19.5608C10.7723 19.5608 9.77344 18.562 9.77344 17.3342C9.77344 16.1065 10.7723 15.1077 12 15.1077C13.2278 15.1077 14.2266 16.1065 14.2266 17.3342C14.2266 18.562 13.2278 19.5608 12 19.5608Z" fill="#888888"/>
</g>
<defs>
<clipPath id="clip0_1270_14642">
<rect width="24" height="24" fill="white" transform="translate(0 0.482666)"/>
</clipPath>
</defs>
</svg>
