<svg width="24" height="25" viewBox="0 0 24 25" fill="none" xmlns="http://www.w3.org/2000/svg">
<g clip-path="url(#clip0_1270_14669)">
<path d="M16.8178 4.35376H3.03616C2.53584 4.35376 2.12891 4.7607 2.12891 5.26102V23.5755C2.12891 24.0759 2.53584 24.4828 3.03616 24.4828H16.8178C17.3176 24.4828 17.7246 24.0759 17.7246 23.5755V5.26102C17.7246 4.7607 17.3176 4.35376 16.8178 4.35376ZM13.7418 17.128H6.38697C5.95923 17.128 5.61278 16.7815 5.61278 16.3538C5.61278 15.926 5.95923 15.5796 6.38697 15.5796H13.7418C14.1696 15.5796 14.516 15.926 14.516 16.3538C14.516 16.7815 14.1696 17.128 13.7418 17.128ZM13.7418 14.0312H6.38697C5.95923 14.0312 5.61278 13.6847 5.61278 13.257C5.61278 12.8292 5.95923 12.4828 6.38697 12.4828H13.7418C14.1696 12.4828 14.516 12.8292 14.516 13.257C14.516 13.6847 14.1696 14.0312 13.7418 14.0312ZM13.7418 10.9344H6.38697C5.95923 10.9344 5.61278 10.588 5.61278 10.1602C5.61278 9.73247 5.95923 9.38602 6.38697 9.38602H13.7418C14.1696 9.38602 14.516 9.73247 14.516 10.1602C14.516 10.588 14.1696 10.9344 13.7418 10.9344Z" fill="#888888"/>
<path d="M21.8711 2.80525V19.8375C21.8711 21.0065 20.9304 22.1601 19.2732 22.1601V5.26089C19.2732 3.90654 18.1719 2.80525 16.818 2.80525H4.72705C4.72705 1.52444 5.83076 0.482666 7.18705 0.482666H19.4111C20.7674 0.482666 21.8711 1.52444 21.8711 2.80525Z" fill="#888888"/>
</g>
<defs>
<clipPath id="clip0_1270_14669">
<rect width="24" height="24" fill="white" transform="translate(0 0.482666)"/>
</clipPath>
</defs>
</svg>
