<svg width="24" height="25" viewBox="0 0 24 25" fill="none" xmlns="http://www.w3.org/2000/svg">
<g clip-path="url(#clip0_1270_14676)">
<path d="M15.5156 0.482666H7.07812C3.20133 0.482666 0 3.68399 0 7.56079C0 11.1059 2.68359 14.0462 6.0983 14.5241C6.31303 14.625 6.81834 14.592 7.07812 14.592V16.7014C7.07812 16.961 7.22095 17.1992 7.44961 17.3215C7.67536 17.4426 7.95352 17.4316 8.1713 17.2865L12.2129 14.592H15.5156C19.3924 14.592 22.5938 11.4376 22.5938 7.56079C22.5938 3.68399 19.3924 0.482666 15.5156 0.482666ZM7.07812 8.96704C6.30291 8.96704 5.67188 8.33601 5.67188 7.56079C5.67188 6.78557 6.30291 6.15454 7.07812 6.15454C7.85334 6.15454 8.48438 6.78557 8.48438 7.56079C8.48438 8.33601 7.85334 8.96704 7.07812 8.96704ZM11.2969 8.96704C10.5217 8.96704 9.89062 8.33601 9.89062 7.56079C9.89062 6.78557 10.5217 6.15454 11.2969 6.15454C12.0721 6.15454 12.7031 6.78557 12.7031 7.56079C12.7031 8.33601 12.0721 8.96704 11.2969 8.96704ZM15.5156 8.96704C14.7404 8.96704 14.1094 8.33601 14.1094 7.56079C14.1094 6.78557 14.7404 6.15454 15.5156 6.15454C16.2908 6.15454 16.9219 6.78557 16.9219 7.56079C16.9219 8.33601 16.2908 8.96704 15.5156 8.96704Z" fill="#888888"/>
<path d="M23.1301 11.2686C21.7544 14.0647 18.8369 15.9982 15.5156 15.9982H12.6386L8.9513 18.4564C8.29102 18.8975 7.45552 18.9202 6.78492 18.5608C6.09895 18.1941 5.67188 17.4814 5.67188 16.7014V15.8808C4.08769 15.6138 2.62528 14.8926 1.47783 13.8795C1.45378 14.1171 1.40625 14.3502 1.40625 14.592C1.40625 18.4688 4.60758 21.6232 8.48438 21.6232H11.7871L15.8287 24.3645C16.0465 24.5096 16.3247 24.5206 16.5504 24.3995C16.779 24.2773 16.9219 24.039 16.9219 23.7795V21.6232C17.1817 21.6232 17.687 21.6562 17.9017 21.5553C21.3164 21.0774 24 18.1364 24 14.592C24 13.4052 23.6782 12.2814 23.1301 11.2686Z" fill="#888888"/>
</g>
<defs>
<clipPath id="clip0_1270_14676">
<rect width="24" height="24" fill="white" transform="translate(0 0.482666)"/>
</clipPath>
</defs>
</svg>
