<svg width="20" height="25" viewBox="0 0 20 25" fill="none" xmlns="http://www.w3.org/2000/svg">
<path d="M7.15477 21.6184C7.15472 21.6247 7.1543 21.6309 7.1543 21.6372C7.1543 23.2087 8.4283 24.4827 9.99986 24.4827C11.5714 24.4827 12.8454 23.2087 12.8454 21.6372C12.8454 21.6309 12.845 21.6247 12.845 21.6184H7.15477Z" fill="#1A72FE"/>
<path d="M19.0852 18.0614L16.5242 14.2993C16.5242 13.1477 16.5242 10.3337 16.5242 9.60575C16.5242 6.44042 14.2699 3.80192 11.2793 3.20732V1.762C11.2793 1.05548 10.7065 0.482666 9.99993 0.482666C9.29335 0.482666 8.72059 1.05548 8.72059 1.762V3.20738C5.72999 3.80203 3.47573 6.44053 3.47573 9.6058C3.47573 10.845 3.47573 13.5812 3.47573 14.2994L0.914718 18.0615C0.644954 18.4577 0.616425 18.9706 0.840576 19.3944C1.06473 19.8181 1.50477 20.0831 1.98416 20.0831H18.0157C18.4951 20.0831 18.9351 19.8181 19.1593 19.3944C19.3835 18.9706 19.3549 18.4577 19.0852 18.0614Z" fill="#1A72FE"/>
</svg>
